HIERARCHY
ROOT Hips
{
	OFFSET 0.00000 0.00000 0.00000
	CHANNELS 6 Xposition Yposition Zposition Zrotation Yrotation Xrotation 
	JOINT RightUpLegDummy
	{
		OFFSET 0 0 0
		CHANNELS 3 Zrotation Yrotation Xrotation
		JOINT RightUpLeg
		{
			OFFSET -3.52197 -3.41223 0.04002
			CHANNELS 3 Zrotation Yrotation Xrotation
			JOINT RightLeg
			{
				OFFSET 0.00006 -17.42390 1.60435
				CHANNELS 3 Zrotation Yrotation Xrotation
				JOINT RightFoot
				{
					OFFSET 0.06153 -16.50078 -1.63901
					CHANNELS 3 Zrotation Yrotation Xrotation
					JOINT RightToes
					{
						OFFSET 0.00298 -1.73825 3.34613
						CHANNELS 3 Zrotation Yrotation Xrotation
						End Site
						{
							OFFSET 0.00480 -0.05416 3.85043
						}
					}
				}
			}
		}
	}
	JOINT SpineDummy
	{
		OFFSET 0 0 0
		CHANNELS 3 Zrotation Yrotation Xrotation
		JOINT Spine
		{
			OFFSET 0.00000 4.68130 0.00000
			CHANNELS 3 Zrotation Yrotation Xrotation
			JOINT Spine1
			{
				OFFSET -0.00000 10.10138 0.05002
				CHANNELS 3 Zrotation Yrotation Xrotation
				JOINT HEadDummy
				{
					OFFSET 0 0 0
					CHANNELS 3 Zrotation Yrotation Xrotation
					JOINT Head
					{
						OFFSET -0.00000 3.43865 0.00438
						CHANNELS 3 Zrotation Yrotation Xrotation
						End Site
						{
							OFFSET -0.11417 5.02924 0.98962
						}
					}
				}
				JOINT LeftShoulder1Dummy
				{
					OFFSET 0 0 0
					CHANNELS 3 Zrotation Yrotation Xrotation
					JOINT LeftShoulder1
					{
						OFFSET 3.53937 -0.14262 -0.08662
						CHANNELS 3 Zrotation Yrotation Xrotation
						JOINT LeftArm
						{
							OFFSET 4.04833 -0.00133 0.12681
							CHANNELS 3 Zrotation Yrotation Xrotation
							JOINT LeftForeArm
							{
								OFFSET 10.33880 -0.01036 -0.55515
								CHANNELS 3 Zrotation Yrotation Xrotation
								JOINT LeftHand
								{
									OFFSET 8.69677 0.07543 0.40060
									CHANNELS 3 Zrotation Yrotation Xrotation
									End Site
									{
										OFFSET 5.28377 -0.21905 0.59205
									}
								}
							}
						}
					}
				}
				JOINT RightShoulderDummy
				{
					OFFSET 0 0 0
					CHANNELS 3 Zrotation Yrotation Xrotation
					JOINT RightShoulder
					{
						OFFSET -3.53937 -0.14262 -0.08660
						CHANNELS 3 Zrotation Yrotation Xrotation
						JOINT RightArm
						{
							OFFSET -4.04833 -0.00133 0.12683
							CHANNELS 3 Zrotation Yrotation Xrotation
							JOINT RightForeArm
							{
								OFFSET -10.37987 -0.01039 -0.55511
								CHANNELS 3 Zrotation Yrotation Xrotation
								JOINT RightHand
								{
									OFFSET -8.67398 0.07538 0.40058
									CHANNELS 3 Zrotation Yrotation Xrotation
									End Site
									{
										OFFSET -5.24810 -0.21916 0.59204
									}
								}
							}
						}
					}
				}
			}
		}
	}
	JOINT LeftUpLegDummy
	{
		OFFSET 0 0 0
		CHANNELS 3 Zrotation Yrotation Xrotation
		JOINT LeftUpLeg
		{
			OFFSET 3.52197 -3.41223 0.04002
			CHANNELS 3 Zrotation Yrotation Xrotation
			JOINT LeftLeg
			{
				OFFSET -0.00012 -17.42399 1.60337
				CHANNELS 3 Zrotation Yrotation Xrotation
				JOINT LeftFoot
				{
					OFFSET -0.09972 -16.50070 -1.63802
					CHANNELS 3 Zrotation Yrotation Xrotation
					JOINT LeftToes
					{
						OFFSET -0.01575 -1.73823 3.34611
						CHANNELS 3 Zrotation Yrotation Xrotation
						End Site
						{
							OFFSET 0.03150 -0.01868 3.85031
						}
					}
				}
			}
		}
	}
}
MOTION
Frames: 19
Frame Time: 0.033333
20.9267 38.6850 5.8085 -162.4730 -74.1836 157.7750 0.0000 0.0000 0.0000 6.4352 -4.5440 8.6219 -8.4388 -20.4833 18.5515 2.3103 0.0331 -15.9079 0.0000 -0.0000 0.0000 0.0000 0.0000 0.0000 6.5743 3.2896 5.8484 -4.5745 4.4458 2.4164 -0.0000 0.0000 -0.0000 -3.5975 5.5667 24.4062 -0.0000 0.0000 -0.0000 -34.6673 -2.3099 2.3667 -41.6685 -11.2925 -19.5958 -10.3331 5.2742 42.7494 14.6261 -3.6676 -1.1136 -0.0000 0.0000 -0.0000 33.4942 5.0135 3.3643 33.2863 12.2087 2.2810 8.1774 15.2055 7.1729 -11.9179 2.8457 -0.8230 0.0000 0.0000 0.0000 -5.7207 13.5739 -16.4879 5.7100 45.3249 11.9359 4.7549 -0.5014 0.4516 0.0000 0.0000 -0.0000
19.9378 38.5459 5.4303 -156.6090 -76.2334 152.6360 0.0000 0.0000 0.0000 6.6831 -7.9570 9.2606 -8.3100 -18.7372 19.5108 4.1097 0.1022 -15.8107 0.0000 -0.0000 0.0000 0.0000 0.0000 0.0000 7.2081 3.3477 4.9460 -4.6919 4.4429 2.3476 -0.0000 0.0000 -0.0000 -3.6558 5.5345 24.6642 -0.0000 0.0000 -0.0000 -34.7710 -2.3637 2.3948 -41.7588 -10.6316 -20.7502 -9.6620 5.2394 44.3989 14.2607 -3.5636 -1.0726 -0.0000 0.0000 -0.0000 33.7596 5.0499 3.4016 33.8380 11.4584 5.6119 6.8815 16.8793 4.3505 -11.0487 3.1412 -0.7869 0.0000 0.0000 0.0000 -4.8943 9.7549 -16.6953 8.4272 54.0033 13.9164 11.2110 -1.1974 0.8501 0.0000 0.0000 -0.0000
18.9018 38.4078 5.0087 -151.4390 -78.4794 147.5990 0.0000 0.0000 0.0000 5.9201 -12.3288 9.8640 -8.2775 -15.6738 21.9015 6.7717 0.1786 -15.3068 0.0000 -0.0000 0.0000 0.0000 0.0000 0.0000 6.2733 3.4991 4.3627 -3.8802 4.3826 2.5311 -0.0000 0.0000 -0.0000 -3.4119 5.2889 24.7682 -0.0000 0.0000 -0.0000 -34.8173 -2.3818 2.4049 -41.8879 -10.3239 -21.9954 -8.8894 5.2080 45.8840 14.1207 -3.3320 -1.0351 -0.0000 0.0000 -0.0000 34.2089 5.1203 3.4687 34.1717 10.6359 6.7151 6.2615 17.5768 3.1267 -10.4732 3.2514 -0.7533 0.0000 0.0000 0.0000 -6.1556 11.1751 -16.8105 11.3672 51.4275 17.1949 16.2177 -1.4702 -1.0093 0.0000 0.0000 -0.0000
17.8636 38.2901 4.6070 -147.6840 -80.9375 143.6100 0.0000 0.0000 0.0000 3.8248 -16.4806 9.8941 -7.9869 -12.6657 26.2864 10.4428 0.1505 -13.5924 0.0000 -0.0000 0.0000 0.0000 0.0000 0.0000 4.3097 3.6412 4.0661 -2.8851 4.3166 2.8241 -0.0000 0.0000 -0.0000 -2.7906 4.8331 25.0110 -0.0000 0.0000 -0.0000 -34.7533 -2.3848 2.4005 -41.8910 -10.1150 -23.0134 -8.2661 5.1905 46.7487 13.9307 -3.0872 -0.9931 -0.0000 0.0000 -0.0000 34.6321 5.1912 3.5344 34.6659 10.2316 4.0212 7.1851 16.3925 5.6462 -10.5889 3.1927 -0.7570 0.0000 0.0000 0.0000 -7.8772 13.5537 -16.3112 12.6836 44.9987 19.6860 16.5830 -0.9821 -4.4940 0.0000 0.0000 -0.0000
16.8779 38.1938 4.3189 -138.6030 -83.3586 134.4010 0.0000 0.0000 0.0000 1.1279 -21.1433 8.9345 -6.9072 -8.6798 32.2374 14.5169 -0.3096 -9.2597 0.0000 -0.0000 0.0000 0.0000 0.0000 0.0000 3.2581 3.5556 3.9958 -2.7901 4.1887 2.8174 -0.0000 0.0000 -0.0000 -1.9953 4.1717 25.6650 -0.0000 0.0000 -0.0000 -34.4726 -2.4044 2.3935 -41.8204 -9.8326 -23.3693 -8.0738 5.1858 46.9852 13.4128 -2.8919 -0.9337 -0.0000 0.0000 -0.0000 34.7344 5.2097 3.5510 35.6741 10.0234 -1.6961 8.9482 13.6435 11.3203 -10.7445 3.1372 -0.7639 0.0000 0.0000 0.0000 -8.2648 12.5925 -15.4535 13.9476 42.0409 22.3207 14.7205 -0.4509 -7.4872 0.0000 0.0000 -0.0000
16.0025 38.1227 4.1461 -112.9350 -84.9888 108.8220 0.0000 0.0000 0.0000 -0.9824 -24.6803 7.0655 -4.6322 -4.4949 38.8560 18.2269 -1.3925 -2.7516 0.0000 -0.0000 0.0000 0.0000 0.0000 0.0000 3.7290 3.2342 4.2811 -3.4550 3.9290 2.3273 -0.0000 0.0000 -0.0000 -1.5168 3.3466 26.4328 -0.0000 0.0000 -0.0000 -34.1888 -2.4473 2.3937 -41.6901 -9.7043 -23.0099 -8.3025 5.1818 47.0451 12.7108 -2.8549 -0.8792 -0.0000 0.0000 -0.0000 34.5624 5.1798 3.5237 36.8601 9.5374 -6.9446 10.1407 10.8833 16.2806 -10.1960 3.1122 -0.7215 0.0000 0.0000 0.0000 -7.5681 8.8085 -14.7354 15.8987 42.6136 25.2373 13.9305 -0.2118 -9.1424 0.0000 0.0000 -0.0000
15.2403 38.0610 3.9775 -74.0749 -84.7487 69.9836 0.0000 0.0000 0.0000 -2.1363 -25.8746 4.7535 -1.6235 -1.0999 45.0709 21.0277 -2.5357 2.3632 0.0000 -0.0000 0.0000 0.0000 0.0000 0.0000 4.2924 2.8683 4.9543 -3.6676 3.5449 1.7242 -0.0000 0.0000 -0.0000 -1.6261 2.4724 26.6900 -0.0000 0.0000 -0.0000 -34.2712 -2.4952 2.4180 -41.4319 -10.1245 -22.3828 -8.6295 5.1727 47.2502 12.1549 -3.0613 -0.8595 -0.0000 0.0000 -0.0000 34.5144 5.1677 3.5146 37.4133 8.8125 -9.6429 10.7050 9.0928 18.3340 -9.3436 3.0460 -0.6537 0.0000 0.0000 0.0000 -7.0527 6.0449 -14.2658 17.5020 42.0304 27.7280 13.8638 -0.0435 -10.4688 0.0000 0.0000 -0.0000
14.5180 38.0682 3.7284 -45.4033 -82.6255 41.1064 0.0000 0.0000 0.0000 -2.5692 -24.8235 2.6257 0.4792 0.5584 49.5342 22.1608 -2.9069 3.5117 0.0000 -0.0000 0.0000 0.0000 0.0000 0.0000 3.8892 2.5297 5.7238 -2.9286 3.0720 1.4810 -0.0000 0.0000 -0.0000 -2.0054 1.6628 26.3817 -0.0000 0.0000 -0.0000 -34.5496 -2.5206 2.4452 -41.3272 -11.1310 -21.7724 -8.8872 5.1760 47.0401 12.0446 -3.3267 -0.8771 -0.0000 0.0000 -0.0000 34.8289 5.2160 3.5620 37.1088 8.2113 -11.0004 11.1302 7.7224 19.2379 -9.0904 2.9925 -0.6315 0.0000 0.0000 0.0000 -6.8399 5.4314 -13.3477 17.0802 38.9642 28.5168 13.0104 0.1265 -11.8307 0.0000 0.0000 -0.0000
13.7752 38.1741 3.4266 -30.6021 -79.3460 26.0517 0.0000 0.0000 0.0000 -2.5233 -22.5619 0.9587 0.0850 0.2556 51.3579 21.4175 -2.4894 1.7953 0.0000 -0.0000 0.0000 0.0000 0.0000 0.0000 3.1266 2.1167 6.2212 -1.9261 2.4968 1.5880 -0.0000 0.0000 -0.0000 -2.1406 0.9487 26.1461 -0.0000 0.0000 -0.0000 -34.4050 -2.5158 2.4344 -41.8920 -12.3335 -20.8391 -9.3180 5.2163 45.3994 12.4695 -3.4634 -0.9230 -0.0000 0.0000 -0.0000 35.2611 5.2838 3.6283 36.6394 7.7662 -12.5203 11.3408 6.1789 21.0964 -9.3979 3.0597 -0.6587 0.0000 0.0000 0.0000 -6.5124 5.8273 -11.9226 15.2125 34.8506 27.8230 11.8213 0.2181 -12.7015 0.0000 0.0000 -0.0000
13.0272 38.3332 3.1389 -23.3273 -75.3025 18.6507 0.0000 0.0000 0.0000 -2.2759 -19.9997 -0.3255 -2.7348 -1.6312 50.7391 18.8776 -1.8362 -0.3414 0.0000 -0.0000 0.0000 0.0000 0.0000 0.0000 2.7286 1.5951 6.4307 -1.1866 1.8408 1.6756 -0.0000 0.0000 -0.0000 -1.9428 0.2913 26.3550 -0.0000 0.0000 -0.0000 -33.7978 -2.5120 2.3958 -43.0085 -13.3749 -19.1125 -10.2003 5.2870 42.2960 12.9883 -3.6897 -0.9866 -0.0000 0.0000 -0.0000 35.4261 5.3093 3.6536 36.6329 7.1696 -14.1439 11.1761 4.7374 23.3612 -9.5433 3.1638 -0.6771 0.0000 0.0000 0.0000 -5.9161 5.8717 -10.4158 13.3021 31.0849 26.6234 11.4184 0.2477 -13.0304 0.0000 0.0000 -0.0000
12.2943 38.5167 2.8824 -19.1280 -70.9806 14.4068 0.0000 0.0000 0.0000 -2.2001 -17.3624 -1.3378 -6.7505 -4.6937 48.5969 14.2837 -1.1876 -1.9590 0.0000 -0.0000 0.0000 0.0000 0.0000 0.0000 2.3710 1.1185 6.5378 -0.4271 1.2167 1.6318 -0.0000 0.0000 -0.0000 -1.6599 -0.3431 26.5757 -0.0000 0.0000 -0.0000 -33.4295 -2.5434 2.3859 -43.8640 -14.2558 -16.6954 -11.4044 5.4151 38.9690 12.9374 -4.2502 -1.0405 -0.0000 0.0000 -0.0000 35.3157 5.2937 3.6373 36.9116 6.3197 -15.1930 10.9250 3.7968 24.1143 -9.4441 3.1083 -0.6657 0.0000 0.0000 0.0000 -5.1919 4.8407 -8.8191 11.6284 28.2501 25.1554 11.4642 0.2618 -13.1590 0.0000 0.0000 -0.0000
11.5697 38.7172 2.6496 -16.0551 -66.7540 11.3127 0.0000 0.0000 0.0000 -2.4247 -14.5727 -2.0760 -11.0193 -8.7988 45.5719 8.9474 -0.6165 -3.6647 0.0000 -0.0000 0.0000 0.0000 0.0000 0.0000 1.7041 0.7966 6.5376 0.5201 0.7101 1.7018 -0.0000 0.0000 -0.0000 -1.3640 -0.9473 26.2827 -0.0000 0.0000 -0.0000 -33.6012 -2.5898 2.4147 -44.1232 -15.1731 -14.2032 -12.4779 4.8956 36.7288 12.4445 -4.9382 -1.0682 -0.0000 0.0000 -0.0000 35.2460 5.2843 3.6271 37.0053 5.4749 -15.6994 10.9084 3.1701 23.1600 -9.6263 2.8419 -0.6590 0.0000 0.0000 0.0000 -4.5334 3.3375 -7.0159 9.9019 25.7879 23.2260 11.1930 0.2521 -13.1061 0.0000 0.0000 -0.0000
10.8594 38.9092 2.4436 -13.8682 -62.6049 9.1949 0.0000 0.0000 0.0000 -2.7621 -11.7744 -2.5500 -14.2419 -13.3294 41.6153 5.4440 -0.2986 -5.4120 0.0000 -0.0000 0.0000 0.0000 0.0000 0.0000 1.0977 0.5303 6.3016 1.3005 0.2810 1.9881 -0.0000 0.0000 -0.0000 -0.9402 -1.5534 25.6258 -0.0000 0.0000 -0.0000 -33.7665 -2.6029 2.4301 -44.3865 -16.1784 -12.1751 -13.1000 2.0689 35.9030 12.3274 -5.4612 -1.1096 -0.0000 0.0000 -0.0000 35.3830 5.3027 3.6470 36.8714 4.8350 -16.0286 10.9708 2.5313 22.0993 -10.0727 2.5645 -0.6690 0.0000 0.0000 0.0000 -3.8949 2.2964 -5.3507 8.1913 22.8961 21.1809 10.8448 0.2186 -12.8300 0.0000 0.0000 -0.0000
10.1842 39.0756 2.2660 -12.4517 -58.3927 7.9570 0.0000 0.0000 0.0000 -3.0951 -9.1013 -2.7929 -14.5678 -16.4907 36.3229 4.5635 -0.2287 -6.1560 0.0000 -0.0000 0.0000 0.0000 0.0000 0.0000 0.8119 0.2221 5.9726 1.8067 -0.1440 2.2052 -0.0000 0.0000 -0.0000 -0.4631 -2.2429 25.1033 -0.0000 0.0000 -0.0000 -33.5538 -2.5745 2.4058 -45.1087 -17.1290 -10.6072 -13.3713 -0.1933 34.9601 12.7483 -5.8164 -1.1856 -0.0000 0.0000 -0.0000 35.5504 5.3244 3.6711 36.7610 4.3283 -16.5308 10.8522 1.7955 22.2089 -10.2045 2.4548 -0.6693 0.0000 0.0000 0.0000 -3.1258 1.8741 -4.1536 6.6417 19.3913 19.5472 10.8444 0.1901 -12.5473 0.0000 0.0000 -0.0000
9.5481 39.2190 2.1057 -11.3749 -54.3001 7.0503 0.0000 0.0000 0.0000 -3.5365 -6.2237 -2.8659 -11.8955 -16.7776 29.9154 5.2297 -0.2793 -5.7122 0.0000 -0.0000 0.0000 0.0000 0.0000 0.0000 0.5760 -0.0113 5.8695 2.3307 -0.4903 2.0956 -0.0000 0.0000 -0.0000 -0.1367 -3.0265 24.8360 -0.0000 0.0000 -0.0000 -33.3395 -2.5437 2.3805 -45.8763 -17.9430 -9.1289 -13.4528 -1.8547 33.4651 13.0752 -6.1079 -1.2481 -0.0000 0.0000 -0.0000 35.5541 5.3260 3.6721 36.7674 3.8737 -17.1868 10.6092 1.0479 22.9562 -9.9757 2.4766 -0.6554 0.0000 0.0000 0.0000 -2.2530 1.8171 -3.2780 5.1820 15.5819 18.3840 10.9151 0.1764 -12.4049 0.0000 0.0000 -0.0000
8.9351 39.3380 1.9500 -10.4071 -50.7002 6.1761 0.0000 0.0000 0.0000 -4.1738 -2.9095 -2.9811 -8.1912 -14.5173 23.5737 6.3048 -0.3609 -5.1370 0.0000 -0.0000 0.0000 0.0000 0.0000 0.0000 0.3188 -0.0050 5.9539 2.7862 -0.5701 1.8590 -0.0000 0.0000 -0.0000 0.1013 -3.8083 24.5426 -0.0000 0.0000 -0.0000 -33.3951 -2.5525 2.3874 -46.1866 -18.7347 -8.1214 -13.4749 -2.6488 32.4880 13.1156 -6.2787 -1.2703 -0.0000 0.0000 -0.0000 35.5004 5.3199 3.6647 36.7976 3.5592 -17.7133 10.4478 0.4044 23.2190 -9.9075 2.4849 -0.6514 0.0000 0.0000 0.0000 -1.3471 1.9906 -2.4995 3.7792 11.9266 17.5360 10.7778 0.1669 -12.3232 0.0000 0.0000 -0.0000
8.3366 39.4339 1.7947 -9.5991 -47.5846 5.4831 0.0000 0.0000 0.0000 -4.9233 0.1725 -3.3501 -4.9627 -10.9429 18.1298 7.2173 -0.4184 -5.0086 0.0000 -0.0000 0.0000 0.0000 0.0000 0.0000 0.3494 0.1618 5.8862 2.7425 -0.3867 1.8425 -0.0000 0.0000 -0.0000 0.4820 -4.4806 24.0142 -0.0000 0.0000 -0.0000 -33.3766 -2.6023 2.4058 -46.2003 -19.5646 -7.8792 -13.4991 -2.4918 32.7374 13.3262 -6.2349 -1.2870 -0.0000 0.0000 -0.0000 35.5867 5.3263 3.6752 36.8124 3.4814 -18.0006 10.3966 0.0169 22.9468 -10.1285 2.4155 -0.6610 0.0000 0.0000 0.0000 -0.4112 2.2962 -1.8670 2.5139 8.6242 16.8740 10.6242 0.1549 -12.2156 0.0000 0.0000 -0.0000
7.7595 39.5231 1.6413 -8.9130 -44.5268 5.0271 0.0000 0.0000 0.0000 -5.6452 1.8655 -3.8923 -2.5445 -6.4507 13.5441 7.9658 -0.4787 -4.7312 0.0000 -0.0000 0.0000 0.0000 0.0000 0.0000 0.6272 0.2377 5.6500 2.3350 -0.2266 1.9574 -0.0000 0.0000 -0.0000 0.9424 -4.9710 23.3172 -0.0000 0.0000 -0.0000 -33.0982 -2.6550 2.4103 -46.1497 -20.1928 -8.1148 -13.5331 -1.8180 33.5744 13.8003 -5.9976 -1.3085 -0.0000 0.0000 -0.0000 35.7081 5.3329 3.6888 36.9075 3.5793 -18.1021 10.3677 0.0743 22.6376 -10.2734 2.3094 -0.6622 0.0000 0.0000 0.0000 0.5054 2.5658 -1.4477 1.4111 5.4167 16.2324 10.5188 0.1377 -12.0488 0.0000 0.0000 -0.0000
7.1975 39.6193 1.4914 -8.1741 -41.3228 4.5869 0.0000 0.0000 0.0000 -6.1265 1.0303 -4.3495 -1.1722 -0.4344 9.6499 8.8269 -0.5766 -4.0784 0.0000 -0.0000 0.0000 0.0000 0.0000 0.0000 0.6883 0.1469 5.5340 2.1867 -0.2898 1.8709 -0.0000 0.0000 -0.0000 1.2034 -5.2465 22.5898 -0.0000 0.0000 -0.0000 -32.9463 -2.6720 2.4105 -45.7753 -20.3820 -8.6371 -13.5747 -0.9583 34.2970 14.1509 -5.6503 -1.3036 -0.0000 0.0000 -0.0000 35.6022 5.3137 3.6713 37.1629 3.7202 -18.0111 10.3658 0.6444 22.2521 -10.2664 2.1662 -0.6501 0.0000 0.0000 0.0000 1.3087 2.6757 -1.0811 0.4214 2.1058 15.4460 10.2336 0.1064 -11.7380 0.0000 0.0000 -0.0000
